<?xml version="1.0" encoding="UTF-8" standalone="no"?><svg xmlns="http://www.w3.org/2000/svg" xmlns:xlink="http://www.w3.org/1999/xlink" width="512" height="512" viewBox="0 0 512 512">
  <defs>
    <filter id="E" x="39" y="153" width="104" height="169" filterUnits="userSpaceOnUse">
      <feOffset dy="3" input="SourceAlpha"/>
      <feGaussianBlur stdDeviation="3" result="blur"/>
      <feFlood flood-color="red" flood-opacity="0.361"/>
      <feComposite operator="in" in2="blur"/>
      <feComposite in="SourceGraphic"/>
    </filter>
    <filter id="W" x="119" y="153" width="164" height="169" filterUnits="userSpaceOnUse">
      <feOffset dy="3" input="SourceAlpha"/>
      <feGaussianBlur stdDeviation="3" result="blur-2"/>
      <feFlood flood-color="#003bff" flood-opacity="0.596"/>
      <feComposite operator="in" in2="blur-2"/>
      <feComposite in="SourceGraphic"/>
    </filter>
    <filter id="R" x="269" y="153" width="110" height="169" filterUnits="userSpaceOnUse">
      <feOffset dy="3" input="SourceAlpha"/>
      <feGaussianBlur stdDeviation="3" result="blur-3"/>
      <feFlood flood-color="#6cff00" flood-opacity="0.584"/>
      <feComposite operator="in" in2="blur-3"/>
      <feComposite in="SourceGraphic"/>
    </filter>
    <filter id="S" x="359" y="153" width="114" height="169" filterUnits="userSpaceOnUse">
      <feOffset dy="3" input="SourceAlpha"/>
      <feGaussianBlur stdDeviation="3" result="blur-4"/>
      <feFlood flood-color="#fff500" flood-opacity="0.373"/>
      <feComposite operator="in" in2="blur-4"/>
      <feComposite in="SourceGraphic"/>
    </filter>
    <clipPath id="clip-カスタムサイズ_1">
      <rect width="512" height="512"/>
    </clipPath>
  </defs>
  <g id="カスタムサイズ_1" data-name="カスタムサイズ – 1" clip-path="url(#clip-カスタムサイズ_1)">
    <rect width="512" height="512" fill="#fff"/>
    <text id="General_Information" data-name="General Information" transform="translate(256 350)" font-size="40" font-family="EuclidCircularA-Light, Euclid Circular A" font-weight="300" letter-spacing="0.02em"><tspan x="-197.2" y="0">General Information</tspan></text>
    <g id="グループ_1" data-name="グループ 1" transform="translate(-10 32)">
      <g transform="matrix(1, 0, 0, 1, 10, -32)" filter="url(#E)">
        <text id="E-2" data-name="E" transform="translate(91 272)" font-size="150" font-family="ModernSans, Modern Sans" letter-spacing="0.02em"><tspan x="-42.45" y="0">E</tspan></text>
      </g>
      <g transform="matrix(1, 0, 0, 1, 10, -32)" filter="url(#W)">
        <text id="W-2" data-name="W" transform="translate(201 272)" font-size="150" font-family="ModernSans, Modern Sans" letter-spacing="0.02em"><tspan x="-72.75" y="0">W</tspan></text>
      </g>
      <g transform="matrix(1, 0, 0, 1, 10, -32)" filter="url(#R)">
        <text id="R-2" data-name="R" transform="translate(324 272)" font-size="150" font-family="ModernSans, Modern Sans" letter-spacing="0.02em"><tspan x="-45.45" y="0">R</tspan></text>
      </g>
      <g transform="matrix(1, 0, 0, 1, 10, -32)" filter="url(#S)">
        <text id="S-2" data-name="S" transform="translate(416 272)" font-size="150" font-family="ModernSans, Modern Sans" letter-spacing="0.02em"><tspan x="-47.025" y="0">S</tspan></text>
      </g>
    </g>
    <g id="天気記号20" transform="translate(233.203 246.594)">
      <path id="パス_8" data-name="パス 8" d="M94.867,359.77H90.076L87.7,366.553h1.96l-2.119,5.613,7.693-8.47H92.086Z" transform="translate(-71.959 -330.473)"/>
      <path id="パス_9" data-name="パス 9" d="M215.2,359.77h-4.79l-2.379,6.783h1.959l-2.119,5.613,7.693-8.47H212.42Z" transform="translate(-182.494 -330.473)"/>
      <path id="パス_10" data-name="パス 10" d="M335.543,359.77h-4.791l-2.379,6.783h1.959l-2.118,5.613,7.693-8.47h-3.146Z" transform="translate(-293.036 -330.473)"/>
      <path id="パス_11" data-name="パス 11" d="M41.882,11.27h-.01c0-.125.01-.25.01-.376A10.894,10.894,0,0,0,20.153,9.768a8.453,8.453,0,1,0-2.5,16.528H41.882a7.513,7.513,0,1,0,0-15.026Z"/>
    </g>
    <text id="EarthQuake" transform="translate(94 292)" font-size="15" font-family="ModernSans, Modern Sans" letter-spacing="0.02em"><tspan x="-46.095" y="0">EarthQuake</tspan></text>
    <text id="Weather" transform="translate(202 292)" font-size="15" font-family="ModernSans, Modern Sans" letter-spacing="0.02em"><tspan x="-33.443" y="0">Weather</tspan></text>
    <text id="Railroad" transform="translate(322 292)" font-size="15" font-family="ModernSans, Modern Sans" letter-spacing="0.02em"><tspan x="-32.077" y="0">Railroad</tspan></text>
    <text id="Situation" transform="translate(416 292)" font-size="15" font-family="ModernSans, Modern Sans" letter-spacing="0.02em"><tspan x="-34.29" y="0">Situation</tspan></text>
    <g id="地震アイコン1" transform="translate(116 183.766)">
      <path id="パス_20" data-name="パス 20" d="M21.572,31.853,0,53.408,3.2,56.6,6.8,53V69.615H17.875L22,62.011l-6.947-2.35,8.071-13.485L20.669,57.618l6.844,2.452-2.77,9.544H36.329V53l3.6,3.6,3.2-3.193Z"/>
    </g>
    <g id="電車_駅のマーク" data-name="電車、駅のマーク" transform="translate(289.237 208.965)">
      <path id="パス_21" data-name="パス 21" d="M105.024,432.118v-.037H94.177v.037h-.61l-3.585,4.588h2.641l.793-1.171h12.346l.793,1.171H109.2l-3.585-4.588Zm-10.842,2.288.809-1.195h9.2l.809,1.195Z" transform="translate(-17.509 -407.077)"/>
      <path id="パス_22" data-name="パス 22" d="M82.08,0C73.79,0,71.4,3.008,71.4,5.3V20.27a3.659,3.659,0,0,0,3.659,3.658H89.1a3.658,3.658,0,0,0,3.658-3.658V5.3C92.763,3.008,90.37,0,82.08,0ZM78.208,3.3h7.744a.932.932,0,1,1,0,1.864H78.208a.932.932,0,0,1,0-1.864ZM76.54,20.743A1.162,1.162,0,1,1,77.7,19.581,1.162,1.162,0,0,1,76.54,20.743Zm4.726-6.9h-6.2V8.172h6.2Zm6.354,6.9a1.162,1.162,0,1,1,1.162-1.162A1.162,1.162,0,0,1,87.62,20.743Zm1.754-6.9H82.894V8.172h6.481Z" transform="translate(0)"/>
    </g>
  </g>
</svg>
